<?xml version="1.0" encoding="UTF-8" standalone="no"?>
<!-- Created with Inkscape (http://www.inkscape.org/) -->

<svg
   xmlns:dc="http://purl.org/dc/elements/1.1/"
   xmlns:cc="http://creativecommons.org/ns#"
   xmlns:rdf="http://www.w3.org/1999/02/22-rdf-syntax-ns#"
   xmlns:svg="http://www.w3.org/2000/svg"
   xmlns="http://www.w3.org/2000/svg"
   xmlns:sodipodi="http://sodipodi.sourceforge.net/DTD/sodipodi-0.dtd"
   xmlns:inkscape="http://www.inkscape.org/namespaces/inkscape"
   width="313.55545"
   height="133.71715"
   id="svg3048"
   version="1.1"
   inkscape:version="0.48.3.1 r9886"
   sodipodi:docname="BerlinMiniJam_logo_final.svg"
   inkscape:export-filename="/home/cjanssen/bmjcards/BerlinMiniJam_logo.png"
   inkscape:export-xdpi="600"
   inkscape:export-ydpi="600">
  <defs
     id="defs3050" />
  <sodipodi:namedview
     id="base"
     pagecolor="#ffffff"
     bordercolor="#666666"
     borderopacity="1.0"
     inkscape:pageopacity="0.0"
     inkscape:pageshadow="2"
     inkscape:zoom="1.2"
     inkscape:cx="-19.22228"
     inkscape:cy="60.191907"
     inkscape:document-units="px"
     inkscape:current-layer="layer1"
     showgrid="false"
     fit-margin-top="0"
     fit-margin-left="0"
     fit-margin-right="0"
     fit-margin-bottom="0"
     inkscape:window-width="1366"
     inkscape:window-height="696"
     inkscape:window-x="0"
     inkscape:window-y="24"
     inkscape:window-maximized="1" />
  <metadata
     id="metadata3053">
    <rdf:RDF>
      <cc:Work
         rdf:about="">
        <dc:format>image/svg+xml</dc:format>
        <dc:type
           rdf:resource="http://purl.org/dc/dcmitype/StillImage" />
        <dc:title></dc:title>
      </cc:Work>
    </rdf:RDF>
  </metadata>
  <g
     id="layer1"
     inkscape:label="Layer 1"
     inkscape:groupmode="layer"
     transform="translate(-112.38895,74.358574)">
    <rect
       y="-74.358574"
       x="112.38895"
       height="133.71715"
       width="313.55545"
       id="rect3889"
       style="fill:#ffffff;fill-opacity:1;stroke:none"
       inkscape:export-filename="/home/cjanssen/Downloads/bmj-print01/singleside_08.png"
       inkscape:export-xdpi="300"
       inkscape:export-ydpi="300" />
    <text
       xml:space="preserve"
       style="font-size:37.77417755px;font-style:normal;font-variant:normal;font-weight:normal;font-stretch:normal;text-align:start;line-height:100%;letter-spacing:0px;word-spacing:0px;text-anchor:start;fill:#000000;fill-opacity:1;stroke:none;font-family:DejaVu Sans Mono;-inkscape-font-specification:DejaVu Sans Mono"
       x="124.452"
       y="76.405464"
       id="text3055"
       sodipodi:linespacing="100%"><tspan
         id="tspan3115"
         sodipodi:role="line"
         x="124.452"
         y="76.405464"
         style="font-size:20.46101189px;font-style:normal;font-variant:normal;font-weight:600;font-stretch:normal;text-align:start;line-height:100%;text-anchor:start;font-family:URW Gothic L;-inkscape-font-specification:URW Gothic L Semi-Bold" /></text>
    <text
       sodipodi:linespacing="125%"
       id="text3047"
       y="-26.252283"
       x="140.73776"
       style="font-size:100.39369965px;font-style:normal;font-variant:normal;font-weight:normal;font-stretch:normal;line-height:125%;letter-spacing:0px;word-spacing:0px;fill:#000000;fill-opacity:1;stroke:none;font-family:Aldo the Apache;-inkscape-font-specification:Aldo the Apache"
       xml:space="preserve"><tspan
         y="-26.252283"
         x="140.73776"
         id="tspan3049"
         sodipodi:role="line" /></text>
    <text
       sodipodi:linespacing="125%"
       id="text3051"
       y="-26.252283"
       x="146.28378"
       style="font-size:100.39369965px;font-style:normal;font-variant:normal;font-weight:normal;font-stretch:normal;line-height:125%;letter-spacing:0px;word-spacing:0px;fill:#000000;fill-opacity:1;stroke:none;font-family:Aldo the Apache;-inkscape-font-specification:Aldo the Apache"
       xml:space="preserve"><tspan
         y="-26.252283"
         x="146.28378"
         id="tspan3053"
         sodipodi:role="line" /></text>
    <flowRoot
       style="font-size:14px;font-style:normal;font-variant:normal;font-weight:600;font-stretch:normal;text-align:start;line-height:120.00000477%;letter-spacing:0px;word-spacing:0px;writing-mode:lr-tb;text-anchor:start;fill:#000000;fill-opacity:1;stroke:none;font-family:URW Gothic L;-inkscape-font-specification:URW Gothic L Semi-Bold"
       id="flowRoot3059"
       xml:space="preserve"
       transform="translate(-149.25664,-430.01741)"><flowRegion
         id="flowRegion3061"><rect
           y="149.62704"
           x="133.64319"
           height="31.819805"
           width="139.30003"
           id="rect3063" /></flowRegion><flowPara
         id="flowPara3065" /></flowRoot>    <text
       sodipodi:linespacing="100%"
       id="text3290"
       y="52.043926"
       x="124.37473"
       style="font-size:33.37787628px;font-style:normal;font-variant:normal;font-weight:normal;font-stretch:normal;text-align:start;line-height:100%;letter-spacing:0px;word-spacing:0px;text-anchor:start;fill:#000000;fill-opacity:1;stroke:none;font-family:DejaVu Sans Mono;-inkscape-font-specification:DejaVu Sans Mono"
       xml:space="preserve"><tspan
         style="font-size:17.38431168px;font-style:normal;font-variant:normal;font-weight:600;font-stretch:normal;text-align:start;line-height:100%;text-anchor:start;font-family:URW Gothic L;-inkscape-font-specification:URW Gothic L Semi-Bold"
         y="52.043926"
         x="124.37473"
         sodipodi:role="line"
         id="tspan3300" /></text>
    <text
       xml:space="preserve"
       style="font-size:37.28890991px;font-style:normal;font-variant:normal;font-weight:normal;font-stretch:normal;text-align:start;line-height:100%;letter-spacing:0px;word-spacing:0px;text-anchor:start;fill:#000000;fill-opacity:1;stroke:none;font-family:DejaVu Sans Mono;-inkscape-font-specification:DejaVu Sans Mono"
       x="124.96259"
       y="27.749269"
       id="text3302"
       sodipodi:linespacing="100%"><tspan
         id="tspan3312"
         sodipodi:role="line"
         x="124.96259"
         y="27.749269"
         style="font-size:19.80973244px;font-style:normal;font-variant:normal;font-weight:600;font-stretch:normal;text-align:start;line-height:100%;text-anchor:start;font-family:URW Gothic L;-inkscape-font-specification:URW Gothic L Semi-Bold" /></text>
    <g
       transform="matrix(1.3449226,0,0,1.3449226,-236.72574,-508.10661)"
       id="g3366">
      <g
         inkscape:transform-center-y="-97.037661"
         inkscape:transform-center-x="47.451982"
         transform="matrix(-0.21649895,-0.07036383,-0.07036383,0.21649895,493.08528,403.64107)"
         id="g3877">
        <path
           sodipodi:nodetypes="ccccczc"
           d="m 867.45222,32.354735 c 17.17255,45.610961 23.86969,58.061139 30.01653,68.707765 0.554,0.95956 1.75919,1.304 2.71875,0.75 l 37.09375,-21.40625 c -1.04269,-8.94675 -2.80431,-17.61816 -5.4375,-28.03125 29.8,-31.4 -9.38379,-62.468931 -34.78125,-43.21875 -25.39746,19.250181 -22.69779,25.027805 -29.61028,23.198485 z"
           id="path3879"
           inkscape:connector-curvature="0"
           style="fill:#261f1d;fill-opacity:1" />
        <path
           style="fill:#ffffff"
           d="m 914.4375,16 c -1.47449,0.0372 -3.15625,0.34375 -5,0.96875 -8,2.6 -15.3875,8.7875 -20.1875,15.1875 l 7.40625,7.40625 c 5.6,-5.6 12.2,-10.4125 20,-13.8125 7.93125,-2.7 5.74348,-9.95105 -2.21875,-9.75 z"
           id="path3881"
           inkscape:connector-curvature="0" />
      </g>
      <path
         sodipodi:nodetypes="ccccc"
         style="fill:#f33b1d"
         inkscape:connector-curvature="0"
         d="m 302.44492,374.12958 c 3.62341,-1.747 10.15848,-0.71174 16.17592,-1.6823 12.0996,-1.94111 13.58778,-5.3704 13.58778,-7.89385 0.0647,-2.65285 2.45874,-2.78226 2.45874,0.0647 -0.0647,16.82296 -25.36385,8.21736 -32.54596,12.55251"
         id="path3848" />
      <path
         inkscape:connector-curvature="0"
         style="fill:#261f1d;fill-opacity:1;stroke:none"
         id="path1404"
         d="m 299.7147,344.1131 c -6.70538,1.1245 -12.59862,4.24813 -17.13829,9.03769 -3.72753,3.93577 -6.14313,8.41296 -7.47588,13.84807 -0.72884,2.95702 -0.91626,8.49626 -0.37483,11.70318 1.74923,10.6828 9.53747,19.94955 19.65801,23.38554 3.64424,1.24945 5.64335,1.56181 9.76654,1.58264 4.20648,0 6.16395,-0.27072 9.53747,-1.3744 6.14313,-2.01994 11.43246,-5.91406 15.26411,-11.30752 1.10368,-1.56182 2.26984,-3.7067 2.08242,-3.8733 -0.0417,-0.0625 -6.03901,-3.06115 -13.28582,-6.68456 -11.51577,-5.74747 -13.14005,-6.62208 -12.80686,-6.85115 0.22906,-0.14576 6.18477,-3.14444 13.24417,-6.70538 7.08021,-3.5401 12.86933,-6.55961 12.86933,-6.68455 0,-0.27072 -1.06203,-2.08242 -2.16571,-3.70671 -0.95791,-1.41604 -3.1861,-3.93576 -4.43555,-4.9978 -1.49934,-1.31192 -3.14445,-2.60301 -3.29022,-2.60301 -0.0417,0 -0.62472,-0.33319 -1.2911,-0.7705 -2.66549,-1.70758 -6.66373,-3.1861 -10.45373,-3.89412 -1.895,-0.35401 -7.85071,-0.41649 -9.70406,-0.10412 z" />
      <g
         transform="matrix(-0.06948279,0.00847673,0.00847673,0.06948279,415.59451,328.48621)"
         id="g3864">
        <path
           id="path3850"
           d="m 1329,330 c -8,49 -3,74 48,115 5,-40 21,-58 46,-75 2,1 4,1 5,2 -3,18 -3,37 1,48 10,28 59,29 72,9 12,29 37,30 57,30 21,0 31,-15 38,-29 12,10 31.5,-119 42.5,-105 l -147.5051,-83.21825"
           inkscape:connector-curvature="0"
           sodipodi:nodetypes="ccccccsccc"
           style="fill:#261f1d;fill-opacity:1" />
        <path
           id="path3852"
           d="m 1340,337 c -9,31 2,66 29,85 5,-22 21,-42 38,-56 -31,-9 -52,-20 -67,-29 m 160,53 c -20,-6 -41,-10 -61,-15 -4,15 -4,31 -1,40 8,22 45,23 55,7 4,-6 7,-19 7,-32 m 12,3 c -3,12 -5,26 0,36 10,19 28,20 44,20 18,0 27,-12 32,-24 -23,-15 -49,-24 -76,-32"
           inkscape:connector-curvature="0"
           style="fill:#ffffff"
           sodipodi:nodetypes="cccccccccccscc" />
      </g>
      <g
         id="g3805"
         transform="matrix(-0.20275863,0.10329035,0.10329035,0.20275863,459.35337,262.14324)"
         inkscape:transform-center-x="111.04906"
         inkscape:transform-center-y="-33.828961">
        <path
           inkscape:connector-curvature="0"
           id="path2993"
           d="m 867.45222,32.354735 40.08993,43.58456 24.3016,-23.564295 c 29.8,-31.4 -9.38379,-62.468931 -34.78125,-43.21875 -25.39746,19.250181 -22.69779,25.027805 -29.61028,23.198485 z"
           sodipodi:nodetypes="ccczc"
           style="fill:#261f1d;fill-opacity:1" />
        <path
           inkscape:connector-curvature="0"
           id="path2995"
           d="m 914.4375,16 c -1.47449,0.0372 -3.15625,0.34375 -5,0.96875 -8,2.6 -15.3875,8.7875 -20.1875,15.1875 l 7.40625,7.40625 c 5.6,-5.6 12.2,-10.4125 20,-13.8125 7.93125,-2.7 5.74348,-9.95105 -2.21875,-9.75 z"
           style="fill:#ffffff" />
      </g>
      <g
         transform="matrix(-0.06951022,-0.02592178,-0.02592178,0.06951022,442.64003,376.26535)"
         id="g3838">
        <path
           sodipodi:nodetypes="cccscccc"
           inkscape:connector-curvature="0"
           d="m 1639,637 0,-24 c -1,-34 -80,-40 -98,-11 -20,-22 -82,-18 -82,17 l 0,11 c -14,-18 -25,-37 -34,-56 -25,16 -40,28 -36,85 l 127.3849,61.58281"
           id="path3842"
           style="fill:#261f1d;fill-opacity:1" />
        <path
           style="fill:#ffffff"
           inkscape:connector-curvature="0"
           d="m 1458,653 0,-7 c -14,-17 -26,-36 -37,-56 -22,16 -25,40 -22,68 m 140,-12 0,-25 c -1,-31 -71,-33 -71,0 l 0,31.5 m 161,-14.5 0,-22 c 0,-30 -81,-32 -81,1 l 0,28"
           id="path3844"
           sodipodi:nodetypes="ccccccsccssc" />
      </g>
      <text
         xml:space="preserve"
         style="font-size:21.84500122px;font-style:normal;font-variant:normal;font-weight:bold;font-stretch:normal;line-height:125%;letter-spacing:0px;word-spacing:0px;fill:#ffffff;fill-opacity:1;stroke:none;font-family:DejaVu Sans Mono;-inkscape-font-specification:DejaVu Sans Mono Bold"
         x="-163.50687"
         y="453.98981"
         id="text3883"
         sodipodi:linespacing="125%"
         transform="matrix(-0.93852227,0.3452187,0.3452187,0.93852227,0,0)"><tspan
           sodipodi:role="line"
           id="tspan3885"
           x="-163.50687"
           y="453.98981"
           style="font-size:29.12666893px;font-style:normal;font-variant:normal;font-weight:bold;font-stretch:normal;font-family:FreeMono;-inkscape-font-specification:FreeMono Bold">^</tspan></text>
      <text
         transform="matrix(-0.93852227,0.3452187,0.3452187,0.93852227,0,0)"
         sodipodi:linespacing="125%"
         id="text3891"
         y="449.36874"
         x="-177.24689"
         style="font-size:17.61738586px;font-style:normal;font-variant:normal;font-weight:bold;font-stretch:normal;line-height:125%;letter-spacing:0px;word-spacing:0px;fill:#ffffff;fill-opacity:1;stroke:none;font-family:DejaVu Sans Mono;-inkscape-font-specification:DejaVu Sans Mono Bold"
         xml:space="preserve"><tspan
           style="font-size:23.48984718px;font-style:normal;font-variant:normal;font-weight:bold;font-stretch:normal;font-family:FreeMono;-inkscape-font-specification:FreeMono Bold"
           y="449.36874"
           x="-177.24689"
           id="tspan3893"
           sodipodi:role="line">^</tspan></text>
    </g>
    <g
       transform="matrix(1.32,0,0,1.32,-313.08368,-568.62701)"
       id="g3908">
      <g
         id="g3896">
        <text
           xml:space="preserve"
           style="font-size:37.64764023px;font-style:normal;font-variant:normal;font-weight:normal;font-stretch:normal;line-height:100%;letter-spacing:0px;word-spacing:0px;fill:#000000;fill-opacity:1;stroke:none;font-family:DejaVu Sans Mono;-inkscape-font-specification:DejaVu Sans Mono"
           x="479.1315"
           y="425.98474"
           id="text3087"
           sodipodi:linespacing="100%"><tspan
             id="tspan3838"
             sodipodi:role="line"
             x="479.1315"
             y="425.98474"
             style="font-size:18px;font-style:normal;font-variant:normal;font-weight:600;font-stretch:normal;text-align:center;line-height:100%;writing-mode:lr-tb;text-anchor:middle;font-family:URW Gothic L;-inkscape-font-specification:URW Gothic L Semi-Bold">BerlinMiniJam.de</tspan></text>
        <g
           id="g3887"
           transform="matrix(0.95,0,0,0.95,27.997847,22.643474)">
          <text
             sodipodi:linespacing="120%"
             id="text3062"
             y="437.43497"
             x="411.28903"
             style="font-size:8.66250038px;font-style:normal;font-variant:normal;font-weight:600;font-stretch:normal;text-align:start;line-height:120.00000477%;letter-spacing:0px;word-spacing:0px;writing-mode:lr-tb;text-anchor:start;fill:#000000;fill-opacity:1;stroke:none;font-family:URW Gothic L;-inkscape-font-specification:URW Gothic L Semi-Bold"
             xml:space="preserve"><tspan
               y="437.43497"
               x="411.28903"
               id="tspan3064"
               sodipodi:role="line"
               style="fill:#f33b1d;fill-opacity:1">Monthly game creation workshop</tspan></text>
        </g>
      </g>
    </g>
  </g>
</svg>
